<svg width="50" height="28" viewBox="0 0 50 28" fill="none" xmlns="http://www.w3.org/2000/svg">
<path d="M49.5888 5.71945C49.1906 5.17627 48.5502 4.85188 47.8763 4.85188L11.6528 4.86445L9.95035 0.964984C9.81204 0.648131 9.49938 0.443604 9.15403 0.443604H1.10362C0.624155 0.443604 0.234375 0.832543 0.234375 1.31285C0.234375 1.79232 0.623316 2.1821 1.10362 2.1821H8.58487L19.2087 26.5228C19.5431 27.3032 20.3084 27.8069 21.1584 27.8069H41.9717C42.9014 27.8069 43.7153 27.2109 43.9978 26.3224L49.9014 7.61638C50.1051 6.97177 49.9878 6.26263 49.5888 5.71945ZM40.1972 22.7758H22.4266C21.9463 22.7758 21.5574 22.3869 21.5574 21.9066C21.5574 21.4271 21.9463 21.0373 22.4266 21.0373H40.198C40.6784 21.0373 41.0673 21.4263 41.0673 21.9066C41.0665 22.3869 40.6775 22.7758 40.1972 22.7758ZM41.7144 17.2879H20.9103C20.4308 17.2879 20.041 16.899 20.041 16.4187C20.041 15.9392 20.43 15.5494 20.9103 15.5494H41.7144C42.1939 15.5494 42.5837 15.9384 42.5837 16.4187C42.5837 16.8981 42.1939 17.2879 41.7144 17.2879ZM42.9584 11.7992H19.6647C19.1843 11.7992 18.7954 11.4102 18.7954 10.9299C18.7954 10.4496 19.1843 10.0607 19.6647 10.0607H42.9584C43.4387 10.0607 43.8276 10.4496 43.8276 10.9299C43.8276 11.4094 43.4387 11.7992 42.9584 11.7992Z" fill="#F9F9F9"/>
</svg>
