<svg width="1918" height="977" viewBox="0 0 1918 977" fill="none" xmlns="http://www.w3.org/2000/svg">
<path d="M94 -4H-3.5L445.5 976L497.5 886L94 -4Z" fill="url(#paint0_linear_49_248)"/>
<path d="M445.5 976H532.5L943.5 261.266L894.5 172L497.5 886L445.5 976Z" fill="url(#paint1_linear_49_248)"/>
<path d="M1395.85 886L999 172H894.5L943.5 261.266L1343.5 976H1444.5L1395.85 886Z" fill="url(#paint2_linear_49_248)"/>
<path d="M1444.5 976L1916.5 -0.5H1817.48L1395.85 886L1444.5 976Z" fill="url(#paint3_linear_49_248)"/>
<path d="M999 172L1444.5 976M999 172H894.5M999 172L1395.85 886M1444.5 976L1916.5 -0.5H1817.48L1395.85 886M1444.5 976L1395.85 886M1444.5 976H1343.5L943.5 261.266M445.5 976L-3.5 -4H94L497.5 886M445.5 976H532.5L943.5 261.266M445.5 976L497.5 886M894.5 172L943.5 261.266M894.5 172L497.5 886" stroke="#1A0000"/>
<defs>
<linearGradient id="paint0_linear_49_248" x1="52.5" y1="42" x2="482" y2="910" gradientUnits="userSpaceOnUse">
<stop stop-color="#E52831"/>
<stop offset="1" stop-color="#331012"/>
</linearGradient>
<linearGradient id="paint1_linear_49_248" x1="928.169" y1="112.983" x2="440.133" y2="880.534" gradientUnits="userSpaceOnUse">
<stop stop-color="#C11F27"/>
<stop offset="0.561314" stop-color="#331012"/>
<stop offset="1" stop-color="#C11F27"/>
</linearGradient>
<linearGradient id="paint2_linear_49_248" x1="901.091" y1="125.213" x2="1435.02" y2="948.087" gradientUnits="userSpaceOnUse">
<stop stop-color="#E52831"/>
<stop offset="0.5" stop-color="#331012"/>
<stop offset="1" stop-color="#E52831"/>
</linearGradient>
<linearGradient id="paint3_linear_49_248" x1="1890.93" y1="-3.46836" x2="1382.1" y2="952.037" gradientUnits="userSpaceOnUse">
<stop stop-color="#E52831"/>
<stop offset="1" stop-color="#331012"/>
</linearGradient>
</defs>
</svg>
