<svg width="50" height="50" viewBox="0 0 50 50" fill="none" xmlns="http://www.w3.org/2000/svg">
<path d="M50 25.0001C50 31.7099 47.3565 37.8024 43.0542 42.2928C38.5037 47.0428 32.0971 50.0001 25 50.0001C17.9029 50.0001 11.4963 47.0428 6.94582 42.2928C2.64354 37.8024 0 31.7099 0 25.0001C0 11.1932 11.193 0.00012207 25 0.00012207C38.807 0.00012207 50 11.1932 50 25.0001Z" fill="#F9F9F9"/>
<path d="M42.6931 41.9469L42.6931 41.9469C38.2331 46.6025 31.9553 49.5001 25 49.5001C18.0447 49.5001 11.7669 46.6025 7.30688 41.9469L7.30686 41.9469C3.09017 37.5458 0.5 31.576 0.5 25.0001C0.5 11.4693 11.4692 0.500122 25 0.500122C38.5308 0.500122 49.5 11.4693 49.5 25.0001C49.5 31.576 46.9098 37.5459 42.6931 41.9469Z" stroke="#1D1D1B" stroke-opacity="0.99"/>
<path d="M25.0003 26.3418C30.6408 26.3418 35.2134 21.7692 35.2134 16.1287C35.2134 10.4881 30.6408 5.91553 25.0003 5.91553C19.3597 5.91553 14.7871 10.4881 14.7871 16.1287C14.7871 21.7692 19.3597 26.3418 25.0003 26.3418Z" fill="#1D1D1B" fill-opacity="0.8"/>
<path d="M42.2071 40.2259C42.0069 40.4522 41.802 40.6748 41.5928 40.8931C37.4107 45.2586 31.5228 47.9766 25 47.9766C18.4773 47.9766 12.5894 45.2586 8.40725 40.8931C8.19804 40.6749 7.9932 40.4523 7.79297 40.2259C7.79297 33.1529 11.895 29.3999 25 29.3999C38.5903 29.4 42.2071 33.7795 42.2071 40.2259Z" fill="#1D1D1B" fill-opacity="0.8"/>
</svg>
